<svg width="52" height="57" viewBox="0 0 52 57" fill="none" xmlns="http://www.w3.org/2000/svg">
<path d="M0 0.140625V49.7406H25.9234C25.061 49.2878 24.2472 48.7558 23.5016 48.1406H1.6V1.74063H27.2V12.9406H38.4V24.7109C38.9536 24.9749 39.4896 25.2688 40 25.6V11.8094L28.3313 0.140625H0ZM28.8 2.87187L37.2687 11.3406H28.8V2.87187ZM5.6 3.34063C5.38783 3.34063 5.18434 3.42491 5.03431 3.57494C4.88428 3.72497 4.8 3.92845 4.8 4.14062C4.8 4.3528 4.88428 4.55628 5.03431 4.70631C5.18434 4.85634 5.38783 4.94063 5.6 4.94063C5.81217 4.94063 6.01566 4.85634 6.16569 4.70631C6.31572 4.55628 6.4 4.3528 6.4 4.14062C6.4 3.92845 6.31572 3.72497 6.16569 3.57494C6.01566 3.42491 5.81217 3.34063 5.6 3.34063ZM5.6 6.54063C5.38783 6.54063 5.18434 6.62491 5.03431 6.77494C4.88428 6.92497 4.8 7.12845 4.8 7.34063C4.8 7.5528 4.88428 7.75628 5.03431 7.90631C5.18434 8.05634 5.38783 8.14062 5.6 8.14062C5.81217 8.14062 6.01566 8.05634 6.16569 7.90631C6.31572 7.75628 6.4 7.5528 6.4 7.34063C6.4 7.12845 6.31572 6.92497 6.16569 6.77494C6.01566 6.62491 5.81217 6.54063 5.6 6.54063ZM5.6 9.74063C5.38783 9.74063 5.18434 9.82491 5.03431 9.97494C4.88428 10.125 4.8 10.3285 4.8 10.5406C4.8 10.7528 4.88428 10.9563 5.03431 11.1063C5.18434 11.2563 5.38783 11.3406 5.6 11.3406C5.81217 11.3406 6.01566 11.2563 6.16569 11.1063C6.31572 10.9563 6.4 10.7528 6.4 10.5406C6.4 10.3285 6.31572 10.125 6.16569 9.97494C6.01566 9.82491 5.81217 9.74063 5.6 9.74063ZM5.6 12.9406C5.38783 12.9406 5.18434 13.0249 5.03431 13.1749C4.88428 13.325 4.8 13.5285 4.8 13.7406C4.8 13.9528 4.88428 14.1563 5.03431 14.3063C5.18434 14.4563 5.38783 14.5406 5.6 14.5406C5.81217 14.5406 6.01566 14.4563 6.16569 14.3063C6.31572 14.1563 6.4 13.9528 6.4 13.7406C6.4 13.5285 6.31572 13.325 6.16569 13.1749C6.01566 13.0249 5.81217 12.9406 5.6 12.9406ZM5.6 16.1406C5.38783 16.1406 5.18434 16.2249 5.03431 16.3749C4.88428 16.525 4.8 16.7285 4.8 16.9406C4.8 17.1528 4.88428 17.3563 5.03431 17.5063C5.18434 17.6563 5.38783 17.7406 5.6 17.7406C5.81217 17.7406 6.01566 17.6563 6.16569 17.5063C6.31572 17.3563 6.4 17.1528 6.4 16.9406C6.4 16.7285 6.31572 16.525 6.16569 16.3749C6.01566 16.2249 5.81217 16.1406 5.6 16.1406ZM5.6 19.3406C5.38783 19.3406 5.18434 19.4249 5.03431 19.5749C4.88428 19.725 4.8 19.9285 4.8 20.1406C4.8 20.3528 4.88428 20.5563 5.03431 20.7063C5.18434 20.8563 5.38783 20.9406 5.6 20.9406C5.81217 20.9406 6.01566 20.8563 6.16569 20.7063C6.31572 20.5563 6.4 20.3528 6.4 20.1406C6.4 19.9285 6.31572 19.725 6.16569 19.5749C6.01566 19.4249 5.81217 19.3406 5.6 19.3406ZM10.4 20.9406V22.5406H32V20.9406H10.4ZM5.6 22.5406C5.38783 22.5406 5.18434 22.6249 5.03431 22.7749C4.88428 22.925 4.8 23.1285 4.8 23.3406C4.8 23.5528 4.88428 23.7563 5.03431 23.9063C5.18434 24.0563 5.38783 24.1406 5.6 24.1406C5.81217 24.1406 6.01566 24.0563 6.16569 23.9063C6.31572 23.7563 6.4 23.5528 6.4 23.3406C6.4 23.1285 6.31572 22.925 6.16569 22.7749C6.01566 22.6249 5.81217 22.5406 5.6 22.5406ZM5.6 25.7406C5.38783 25.7406 5.18434 25.8249 5.03431 25.9749C4.88428 26.125 4.8 26.3285 4.8 26.5406C4.8 26.7528 4.88428 26.9563 5.03431 27.1063C5.18434 27.2563 5.38783 27.3406 5.6 27.3406C5.81217 27.3406 6.01566 27.2563 6.16569 27.1063C6.31572 26.9563 6.4 26.7528 6.4 26.5406C6.4 26.3285 6.31572 26.125 6.16569 25.9749C6.01566 25.8249 5.81217 25.7406 5.6 25.7406ZM10.4 25.7406V27.3406H22.6203C23.2219 26.7526 23.8711 26.2134 24.5703 25.7406H10.4ZM32.4 25.7406C26.003 25.7406 20.8 30.9436 20.8 37.3406C20.8 43.7377 26.003 48.9406 32.4 48.9406C35.3111 48.9406 37.9675 47.8552 40.0063 46.0781L42.8844 48.9562L42.8547 48.9859C42.2499 49.5899 42.2499 50.5733 42.8547 51.1781L48.1625 56.4875C48.4553 56.7803 48.8458 56.9406 49.2594 56.9406C49.673 56.9406 50.0627 56.7787 50.3547 56.4859L51.5453 55.2953C52.1501 54.6913 52.1509 53.7071 51.5469 53.1031L46.2375 47.7953C45.6503 47.2097 44.6293 47.2097 44.0453 47.7953L44.0156 47.825L41.1375 44.9469C42.9146 42.9081 44 40.2517 44 37.3406C44 30.9436 38.797 25.7406 32.4 25.7406ZM32.4 27.3406C37.9323 27.3406 42.4 31.8083 42.4 37.3406C42.4 42.8729 37.9323 47.3406 32.4 47.3406C26.8677 47.3406 22.4 42.8729 22.4 37.3406C22.4 31.8083 26.8677 27.3406 32.4 27.3406ZM5.6 28.9406C5.38783 28.9406 5.18434 29.0249 5.03431 29.1749C4.88428 29.325 4.8 29.5285 4.8 29.7406C4.8 29.9528 4.88428 30.1563 5.03431 30.3063C5.18434 30.4563 5.38783 30.5406 5.6 30.5406C5.81217 30.5406 6.01566 30.4563 6.16569 30.3063C6.31572 30.1563 6.4 29.9528 6.4 29.7406C6.4 29.5285 6.31572 29.325 6.16569 29.1749C6.01566 29.0249 5.81217 28.9406 5.6 28.9406ZM10.4 30.5406V32.1406H19.4125C19.6341 31.5894 19.8855 31.055 20.1719 30.5406H10.4ZM5.6 32.1406C5.38783 32.1406 5.18434 32.2249 5.03431 32.3749C4.88428 32.525 4.8 32.7285 4.8 32.9406C4.8 33.1528 4.88428 33.3563 5.03431 33.5063C5.18434 33.6563 5.38783 33.7406 5.6 33.7406C5.81217 33.7406 6.01566 33.6563 6.16569 33.5063C6.31572 33.3563 6.4 33.1528 6.4 32.9406C6.4 32.7285 6.31572 32.525 6.16569 32.3749C6.01566 32.2249 5.81217 32.1406 5.6 32.1406ZM25.8156 32.1406C25.0804 33.0694 24.5412 34.1558 24.25 35.3406H36.8V32.1406H25.8156ZM5.6 35.3406C5.38783 35.3406 5.18434 35.4249 5.03431 35.5749C4.88428 35.725 4.8 35.9285 4.8 36.1406C4.8 36.3528 4.88428 36.5563 5.03431 36.7063C5.18434 36.8563 5.38783 36.9406 5.6 36.9406C5.81217 36.9406 6.01566 36.8563 6.16569 36.7063C6.31572 36.5563 6.4 36.3528 6.4 36.1406C6.4 35.9285 6.31572 35.725 6.16569 35.5749C6.01566 35.4249 5.81217 35.3406 5.6 35.3406ZM10.4 35.3406V36.9406H18.4203C18.4355 36.3982 18.4842 35.8654 18.5594 35.3406H10.4ZM5.6 38.5406C5.38783 38.5406 5.18434 38.6249 5.03431 38.7749C4.88428 38.925 4.8 39.1285 4.8 39.3406C4.8 39.5528 4.88428 39.7563 5.03431 39.9063C5.18434 40.0563 5.38783 40.1406 5.6 40.1406C5.81217 40.1406 6.01566 40.0563 6.16569 39.9063C6.31572 39.7563 6.4 39.5528 6.4 39.3406C6.4 39.1285 6.31572 38.925 6.16569 38.7749C6.01566 38.6249 5.81217 38.5406 5.6 38.5406ZM24.0953 38.5406C24.2625 39.7006 24.6658 40.783 25.2578 41.7406H32.8V38.5406H24.0953ZM5.6 41.7406C5.38783 41.7406 5.18434 41.8249 5.03431 41.9749C4.88428 42.125 4.8 42.3285 4.8 42.5406C4.8 42.7528 4.88428 42.9563 5.03431 43.1063C5.18434 43.2563 5.38783 43.3406 5.6 43.3406C5.81217 43.3406 6.01566 43.2563 6.16569 43.1063C6.31572 42.9563 6.4 42.7528 6.4 42.5406C6.4 42.3285 6.31572 42.125 6.16569 41.9749C6.01566 41.8249 5.81217 41.7406 5.6 41.7406ZM5.6 44.9406C5.38783 44.9406 5.18434 45.0249 5.03431 45.1749C4.88428 45.325 4.8 45.5285 4.8 45.7406C4.8 45.9528 4.88428 46.1563 5.03431 46.3063C5.18434 46.4563 5.38783 46.5406 5.6 46.5406C5.81217 46.5406 6.01566 46.4563 6.16569 46.3063C6.31572 46.1563 6.4 45.9528 6.4 45.7406C6.4 45.5285 6.31572 45.325 6.16569 45.1749C6.01566 45.0249 5.81217 44.9406 5.6 44.9406ZM45.1063 48.9266L50.4141 54.1641L49.2938 55.3547L44.0187 50.0812L45.1063 48.9266Z" fill="white"/>
</svg>
